The Amazing SpiderMan (2012) DVDRip H264-AC3-AVI MultiSubs
.
[IMG]http://i.imgur.com/LCzXi.jpg[/IMG]
.
PG-13 136 min  -  Action | Fantasy | Thriller  -   28 June 2012 (Netherlands)
. 
http://www.imdb.com/title/tt0948470/
. 
http://www.moviemeter.nl/film/78173
.
PLOT
.
Peter Parker finds a clue that might help him understand why his parents disappeared when he was young.
His path puts him on a collision course with Dr. Curt Connors, his father's former partner. 
.
NL Vertaling: SRT-TEAM
Subtitles: English, Arabic, Estonian, Greek, Hebrew, Islenska, Latvian, Lithuanian, Russian, Dutch.(All White and Yellow)
Source: Novyj.Chelovek.pauk.2012.D.DVD9.IRONCLUB
.
Video
Format                                   : AVC
Format/Info                              : Advanced Video Codec
Format profile                           : High@L3.1
Format settings, CABAC                   : Yes
Format settings, ReFrames                : 10 frames
Codec ID                                 : H264
Duration                                 : 2h 10mn
Bit rate                                 : 1 102 Kbps
Width                                    : 648 pixels
Height                                   : 360 pixels
Display aspect ratio                     : 16:9
Frame rate                               : 25.000 fps
Color space                              : YUV
Chroma subsampling                       : 4:2:0
Bit depth                                : 8 bits
Scan type                                : Progressive
Bits/(Pixel*Frame)                       : 0.189
Stream size                              : 1.01 GiB (74%)
Writing library                          : x264 core 93 r1538bm bd72d46
Encoding settings                        : cabac=1 / ref=10 / deblock=1:-2:-1 / analyse=0x3:0x133 / me=umh / subme=6 / psy=1 / psy_rd=1.00:0.00 / mixed_ref=1 / me_range=16 / chroma_me=1 / trellis=2 / 8x8dct=1 / cqm=0 / deadzone=21,11 / fast_pskip=0 / chroma_qp_offset=-2 / threads=8 / sliced_threads=0 / nr=0 / decimate=1 / interlaced=0 / constrained_intra=0 / bframes=16 / b_pyramid=2 / b_adapt=1 / b_bias=0 / direct=1 / wpredb=1 / wpredp=2 / keyint=250 / keyint_min=25 / scenecut=40 / intra_refresh=0 / rc_lookahead=40 / rc=2pass / mbtree=1 / bitrate=1102 / ratetol=1.0 / qcomp=0.60 / qpmin=10 / qpmax=51 / qpstep=4 / cplxblur=20.0 / qblur=0.5 / ip_ratio=1.40 / aq=1:1.00

Audio
Format                                   : AC-3
Format/Info                              : Audio Coding 3
Mode extension                           : CM (complete main)
Format settings, Endianness              : Big
Codec ID                                 : 2000
Duration                                 : 2h 10mn
Bit rate mode                            : Constant
Bit rate                                 : 384 Kbps
Channel(s)                               : 6 channels
Channel positions                        : Front: L C R, Side: L R, LFE
Sampling rate                            : 48.0 KHz
Bit depth                                : 16 bits
Compression mode                         : Lossy
Stream size                              : 359 MiB (26%)
Alignment                                : Split accross interleaves
Interleave, duration                     : 40 ms (1.00 video frame)
Interleave, preload duration             : 500 ms
.
Enjoy

